<?xml version="1.0" encoding="utf-8" standalone="no"?>
<!DOCTYPE svg PUBLIC "-//W3C//DTD SVG 1.1//EN"
  "http://www.w3.org/Graphics/SVG/1.1/DTD/svg11.dtd">
<svg xmlns:xlink="http://www.w3.org/1999/xlink" width="720pt" height="396pt" viewBox="0 0 720 396" xmlns="http://www.w3.org/2000/svg" version="1.1">
 <metadata>
  <rdf:RDF xmlns:dc="http://purl.org/dc/elements/1.1/" xmlns:cc="http://creativecommons.org/ns#" xmlns:rdf="http://www.w3.org/1999/02/22-rdf-syntax-ns#">
   <cc:Work>
    <dc:type rdf:resource="http://purl.org/dc/dcmitype/StillImage"/>
    <dc:date>2025-07-08T12:32:33.460653</dc:date>
    <dc:format>image/svg+xml</dc:format>
    <dc:creator>
     <cc:Agent>
      <dc:title>Matplotlib v3.5.1, https://matplotlib.org/</dc:title>
     </cc:Agent>
    </dc:creator>
   </cc:Work>
  </rdf:RDF>
 </metadata>
 <defs>
  <style type="text/css">*{stroke-linejoin: round; stroke-linecap: butt}</style>
 </defs>
 <g id="figure_1">
  <g id="patch_1">
   <path d="M 0 396 
L 720 396 
L 720 0 
L 0 0 
z
" style="fill: #ffffff"/>
  </g>
  <g id="axes_1">
   <g id="patch_2">
    <path d="M 90 352.44 
L 648 352.44 
L 648 47.52 
L 90 47.52 
z
" style="fill: #ffffff"/>
   </g>
   <g id="matplotlib.axis_1">
    <g id="xtick_1">
     <g id="line2d_1">
      <defs>
       <path id="m4c6bc4dda2" d="M 0 0 
L 0 -5 
" style="stroke: #000000; stroke-width: 0.5"/>
      </defs>
      <g>
       <use xlink:href="#m4c6bc4dda2" x="115.363636" y="352.44" style="stroke: #000000; stroke-width: 0.5"/>
      </g>
     </g>
     <g id="line2d_2">
      <defs>
       <path id="m0edb260505" d="M 0 0 
L 0 5 
" style="stroke: #000000; stroke-width: 0.5"/>
      </defs>
      <g>
       <use xlink:href="#m0edb260505" x="115.363636" y="47.52" style="stroke: #000000; stroke-width: 0.5"/>
      </g>
     </g>
     <g id="text_1">
      <!-- $\mathdefault{0}$ -->
      <g transform="translate(112.872969 362.858498)scale(0.1 -0.1)">
       <defs>
        <path id="CMR17-30" d="M 2688 2038 
C 2688 2430 2682 3099 2413 3613 
C 2176 4063 1798 4224 1466 4224 
C 1158 4224 768 4082 525 3620 
C 269 3137 243 2539 243 2038 
C 243 1671 250 1112 448 623 
C 723 -39 1216 -128 1466 -128 
C 1760 -128 2208 -7 2470 604 
C 2662 1048 2688 1568 2688 2038 
z
M 1466 -26 
C 1056 -26 813 328 723 816 
C 653 1196 653 1749 653 2109 
C 653 2604 653 3015 736 3407 
C 858 3954 1216 4121 1466 4121 
C 1728 4121 2067 3947 2189 3420 
C 2272 3054 2278 2623 2278 2109 
C 2278 1691 2278 1176 2202 797 
C 2067 96 1690 -26 1466 -26 
z
" transform="scale(0.015625)"/>
       </defs>
       <use xlink:href="#CMR17-30" transform="scale(0.996264)"/>
      </g>
     </g>
    </g>
    <g id="xtick_2">
     <g id="line2d_3">
      <g>
       <use xlink:href="#m4c6bc4dda2" x="217.842975" y="352.44" style="stroke: #000000; stroke-width: 0.5"/>
      </g>
     </g>
     <g id="line2d_4">
      <g>
       <use xlink:href="#m0edb260505" x="217.842975" y="47.52" style="stroke: #000000; stroke-width: 0.5"/>
      </g>
     </g>
     <g id="text_2">
      <!-- $\mathdefault{20}$ -->
      <g transform="translate(212.86164 362.858498)scale(0.1 -0.1)">
       <defs>
        <path id="CMR17-32" d="M 2669 990 
L 2554 990 
C 2490 537 2438 460 2413 422 
C 2381 371 1920 371 1830 371 
L 602 371 
C 832 620 1280 1073 1824 1596 
C 2214 1966 2669 2400 2669 3033 
C 2669 3788 2067 4224 1395 4224 
C 691 4224 262 3603 262 3027 
C 262 2777 448 2745 525 2745 
C 589 2745 781 2783 781 3007 
C 781 3206 614 3264 525 3264 
C 486 3264 448 3257 422 3244 
C 544 3788 915 4057 1306 4057 
C 1862 4057 2227 3616 2227 3033 
C 2227 2477 1901 1998 1536 1583 
L 262 147 
L 262 0 
L 2515 0 
L 2669 990 
z
" transform="scale(0.015625)"/>
       </defs>
       <use xlink:href="#CMR17-32" transform="scale(0.996264)"/>
       <use xlink:href="#CMR17-30" transform="translate(45.690477 0)scale(0.996264)"/>
      </g>
     </g>
    </g>
    <g id="xtick_3">
     <g id="line2d_5">
      <g>
       <use xlink:href="#m4c6bc4dda2" x="320.322314" y="352.44" style="stroke: #000000; stroke-width: 0.5"/>
      </g>
     </g>
     <g id="line2d_6">
      <g>
       <use xlink:href="#m0edb260505" x="320.322314" y="47.52" style="stroke: #000000; stroke-width: 0.5"/>
      </g>
     </g>
     <g id="text_3">
      <!-- $\mathdefault{40}$ -->
      <g transform="translate(315.340979 362.858498)scale(0.1 -0.1)">
       <defs>
        <path id="CMR17-34" d="M 2150 4147 
C 2150 4281 2144 4288 2029 4288 
L 128 1254 
L 128 1088 
L 1779 1088 
L 1779 460 
C 1779 230 1766 166 1318 166 
L 1197 166 
L 1197 0 
C 1402 12 1747 12 1965 12 
C 2182 12 2528 12 2733 0 
L 2733 166 
L 2611 166 
C 2163 166 2150 230 2150 460 
L 2150 1088 
L 2803 1088 
L 2803 1254 
L 2150 1254 
L 2150 4147 
z
M 1798 3723 
L 1798 1254 
L 256 1254 
L 1798 3723 
z
" transform="scale(0.015625)"/>
       </defs>
       <use xlink:href="#CMR17-34" transform="scale(0.996264)"/>
       <use xlink:href="#CMR17-30" transform="translate(45.690477 0)scale(0.996264)"/>
      </g>
     </g>
    </g>
    <g id="xtick_4">
     <g id="line2d_7">
      <g>
       <use xlink:href="#m4c6bc4dda2" x="422.801653" y="352.44" style="stroke: #000000; stroke-width: 0.5"/>
      </g>
     </g>
     <g id="line2d_8">
      <g>
       <use xlink:href="#m0edb260505" x="422.801653" y="47.52" style="stroke: #000000; stroke-width: 0.5"/>
      </g>
     </g>
     <g id="text_4">
      <!-- $\mathdefault{60}$ -->
      <g transform="translate(417.820318 362.858498)scale(0.1 -0.1)">
       <defs>
        <path id="CMR17-36" d="M 678 2198 
C 678 3712 1395 4076 1811 4076 
C 1946 4076 2272 4049 2400 3782 
C 2298 3782 2106 3782 2106 3558 
C 2106 3385 2246 3328 2336 3328 
C 2394 3328 2566 3353 2566 3571 
C 2566 3987 2246 4224 1805 4224 
C 1043 4224 243 3411 243 2011 
C 243 257 966 -128 1478 -128 
C 2099 -128 2688 431 2688 1295 
C 2688 2101 2170 2688 1517 2688 
C 1126 2688 838 2430 678 1979 
L 678 2198 
z
M 1478 25 
C 691 25 691 1212 691 1450 
C 691 1914 909 2585 1504 2585 
C 1613 2585 1926 2585 2138 2140 
C 2253 1889 2253 1624 2253 1302 
C 2253 954 2253 696 2118 438 
C 1978 173 1773 25 1478 25 
z
" transform="scale(0.015625)"/>
       </defs>
       <use xlink:href="#CMR17-36" transform="scale(0.996264)"/>
       <use xlink:href="#CMR17-30" transform="translate(45.690477 0)scale(0.996264)"/>
      </g>
     </g>
    </g>
    <g id="xtick_5">
     <g id="line2d_9">
      <g>
       <use xlink:href="#m4c6bc4dda2" x="525.280992" y="352.44" style="stroke: #000000; stroke-width: 0.5"/>
      </g>
     </g>
     <g id="line2d_10">
      <g>
       <use xlink:href="#m0edb260505" x="525.280992" y="47.52" style="stroke: #000000; stroke-width: 0.5"/>
      </g>
     </g>
     <g id="text_5">
      <!-- $\mathdefault{80}$ -->
      <g transform="translate(520.299656 362.858498)scale(0.1 -0.1)">
       <defs>
        <path id="CMR17-38" d="M 1741 2289 
C 2144 2494 2554 2803 2554 3298 
C 2554 3884 1990 4224 1472 4224 
C 890 4224 378 3800 378 3215 
C 378 3054 416 2777 666 2533 
C 730 2469 998 2276 1171 2154 
C 883 2006 211 1652 211 945 
C 211 282 838 -128 1459 -128 
C 2144 -128 2720 366 2720 1022 
C 2720 1607 2330 1877 2074 2051 
L 1741 2289 
z
M 902 2855 
C 851 2887 595 3086 595 3388 
C 595 3781 998 4076 1459 4076 
C 1965 4076 2336 3716 2336 3298 
C 2336 2700 1670 2359 1638 2359 
C 1632 2359 1626 2359 1574 2398 
L 902 2855 
z
M 2080 1536 
C 2176 1466 2483 1253 2483 861 
C 2483 385 2010 25 1472 25 
C 890 25 448 443 448 951 
C 448 1459 838 1884 1280 2083 
L 2080 1536 
z
" transform="scale(0.015625)"/>
       </defs>
       <use xlink:href="#CMR17-38" transform="scale(0.996264)"/>
       <use xlink:href="#CMR17-30" transform="translate(45.690477 0)scale(0.996264)"/>
      </g>
     </g>
    </g>
    <g id="xtick_6">
     <g id="line2d_11">
      <g>
       <use xlink:href="#m4c6bc4dda2" x="627.760331" y="352.44" style="stroke: #000000; stroke-width: 0.5"/>
      </g>
     </g>
     <g id="line2d_12">
      <g>
       <use xlink:href="#m0edb260505" x="627.760331" y="47.52" style="stroke: #000000; stroke-width: 0.5"/>
      </g>
     </g>
     <g id="text_6">
      <!-- $\mathdefault{100}$ -->
      <g transform="translate(620.288328 362.858498)scale(0.1 -0.1)">
       <defs>
        <path id="CMR17-31" d="M 1702 4083 
C 1702 4217 1696 4224 1606 4224 
C 1357 3927 979 3833 621 3820 
C 602 3820 570 3820 563 3808 
C 557 3795 557 3782 557 3648 
C 755 3648 1088 3686 1344 3839 
L 1344 467 
C 1344 243 1331 166 781 166 
L 589 166 
L 589 0 
C 896 6 1216 12 1523 12 
C 1830 12 2150 6 2458 0 
L 2458 166 
L 2266 166 
C 1715 166 1702 236 1702 467 
L 1702 4083 
z
" transform="scale(0.015625)"/>
       </defs>
       <use xlink:href="#CMR17-31" transform="scale(0.996264)"/>
       <use xlink:href="#CMR17-30" transform="translate(45.690477 0)scale(0.996264)"/>
       <use xlink:href="#CMR17-30" transform="translate(91.380954 0)scale(0.996264)"/>
      </g>
     </g>
    </g>
    <g id="xtick_7">
     <g id="line2d_13">
      <defs>
       <path id="m0dbaf9c5a9" d="M 0 0 
L 0 -2.5 
" style="stroke: #000000; stroke-width: 0.5"/>
      </defs>
      <g>
       <use xlink:href="#m0dbaf9c5a9" x="140.983471" y="352.44" style="stroke: #000000; stroke-width: 0.5"/>
      </g>
     </g>
     <g id="line2d_14">
      <defs>
       <path id="mbf8c64dd4d" d="M 0 0 
L 0 2.5 
" style="stroke: #000000; stroke-width: 0.5"/>
      </defs>
      <g>
       <use xlink:href="#mbf8c64dd4d" x="140.983471" y="47.52" style="stroke: #000000; stroke-width: 0.5"/>
      </g>
     </g>
    </g>
    <g id="xtick_8">
     <g id="line2d_15">
      <g>
       <use xlink:href="#m0dbaf9c5a9" x="166.603306" y="352.44" style="stroke: #000000; stroke-width: 0.5"/>
      </g>
     </g>
     <g id="line2d_16">
      <g>
       <use xlink:href="#mbf8c64dd4d" x="166.603306" y="47.52" style="stroke: #000000; stroke-width: 0.5"/>
      </g>
     </g>
    </g>
    <g id="xtick_9">
     <g id="line2d_17">
      <g>
       <use xlink:href="#m0dbaf9c5a9" x="192.22314" y="352.44" style="stroke: #000000; stroke-width: 0.5"/>
      </g>
     </g>
     <g id="line2d_18">
      <g>
       <use xlink:href="#mbf8c64dd4d" x="192.22314" y="47.52" style="stroke: #000000; stroke-width: 0.5"/>
      </g>
     </g>
    </g>
    <g id="xtick_10">
     <g id="line2d_19">
      <g>
       <use xlink:href="#m0dbaf9c5a9" x="243.46281" y="352.44" style="stroke: #000000; stroke-width: 0.5"/>
      </g>
     </g>
     <g id="line2d_20">
      <g>
       <use xlink:href="#mbf8c64dd4d" x="243.46281" y="47.52" style="stroke: #000000; stroke-width: 0.5"/>
      </g>
     </g>
    </g>
    <g id="xtick_11">
     <g id="line2d_21">
      <g>
       <use xlink:href="#m0dbaf9c5a9" x="269.082645" y="352.44" style="stroke: #000000; stroke-width: 0.5"/>
      </g>
     </g>
     <g id="line2d_22">
      <g>
       <use xlink:href="#mbf8c64dd4d" x="269.082645" y="47.52" style="stroke: #000000; stroke-width: 0.5"/>
      </g>
     </g>
    </g>
    <g id="xtick_12">
     <g id="line2d_23">
      <g>
       <use xlink:href="#m0dbaf9c5a9" x="294.702479" y="352.44" style="stroke: #000000; stroke-width: 0.5"/>
      </g>
     </g>
     <g id="line2d_24">
      <g>
       <use xlink:href="#mbf8c64dd4d" x="294.702479" y="47.52" style="stroke: #000000; stroke-width: 0.5"/>
      </g>
     </g>
    </g>
    <g id="xtick_13">
     <g id="line2d_25">
      <g>
       <use xlink:href="#m0dbaf9c5a9" x="345.942149" y="352.44" style="stroke: #000000; stroke-width: 0.5"/>
      </g>
     </g>
     <g id="line2d_26">
      <g>
       <use xlink:href="#mbf8c64dd4d" x="345.942149" y="47.52" style="stroke: #000000; stroke-width: 0.5"/>
      </g>
     </g>
    </g>
    <g id="xtick_14">
     <g id="line2d_27">
      <g>
       <use xlink:href="#m0dbaf9c5a9" x="371.561983" y="352.44" style="stroke: #000000; stroke-width: 0.5"/>
      </g>
     </g>
     <g id="line2d_28">
      <g>
       <use xlink:href="#mbf8c64dd4d" x="371.561983" y="47.52" style="stroke: #000000; stroke-width: 0.5"/>
      </g>
     </g>
    </g>
    <g id="xtick_15">
     <g id="line2d_29">
      <g>
       <use xlink:href="#m0dbaf9c5a9" x="397.181818" y="352.44" style="stroke: #000000; stroke-width: 0.5"/>
      </g>
     </g>
     <g id="line2d_30">
      <g>
       <use xlink:href="#mbf8c64dd4d" x="397.181818" y="47.52" style="stroke: #000000; stroke-width: 0.5"/>
      </g>
     </g>
    </g>
    <g id="xtick_16">
     <g id="line2d_31">
      <g>
       <use xlink:href="#m0dbaf9c5a9" x="448.421488" y="352.44" style="stroke: #000000; stroke-width: 0.5"/>
      </g>
     </g>
     <g id="line2d_32">
      <g>
       <use xlink:href="#mbf8c64dd4d" x="448.421488" y="47.52" style="stroke: #000000; stroke-width: 0.5"/>
      </g>
     </g>
    </g>
    <g id="xtick_17">
     <g id="line2d_33">
      <g>
       <use xlink:href="#m0dbaf9c5a9" x="474.041322" y="352.44" style="stroke: #000000; stroke-width: 0.5"/>
      </g>
     </g>
     <g id="line2d_34">
      <g>
       <use xlink:href="#mbf8c64dd4d" x="474.041322" y="47.52" style="stroke: #000000; stroke-width: 0.5"/>
      </g>
     </g>
    </g>
    <g id="xtick_18">
     <g id="line2d_35">
      <g>
       <use xlink:href="#m0dbaf9c5a9" x="499.661157" y="352.44" style="stroke: #000000; stroke-width: 0.5"/>
      </g>
     </g>
     <g id="line2d_36">
      <g>
       <use xlink:href="#mbf8c64dd4d" x="499.661157" y="47.52" style="stroke: #000000; stroke-width: 0.5"/>
      </g>
     </g>
    </g>
    <g id="xtick_19">
     <g id="line2d_37">
      <g>
       <use xlink:href="#m0dbaf9c5a9" x="550.900826" y="352.44" style="stroke: #000000; stroke-width: 0.5"/>
      </g>
     </g>
     <g id="line2d_38">
      <g>
       <use xlink:href="#mbf8c64dd4d" x="550.900826" y="47.52" style="stroke: #000000; stroke-width: 0.5"/>
      </g>
     </g>
    </g>
    <g id="xtick_20">
     <g id="line2d_39">
      <g>
       <use xlink:href="#m0dbaf9c5a9" x="576.520661" y="352.44" style="stroke: #000000; stroke-width: 0.5"/>
      </g>
     </g>
     <g id="line2d_40">
      <g>
       <use xlink:href="#mbf8c64dd4d" x="576.520661" y="47.52" style="stroke: #000000; stroke-width: 0.5"/>
      </g>
     </g>
    </g>
    <g id="xtick_21">
     <g id="line2d_41">
      <g>
       <use xlink:href="#m0dbaf9c5a9" x="602.140496" y="352.44" style="stroke: #000000; stroke-width: 0.5"/>
      </g>
     </g>
     <g id="line2d_42">
      <g>
       <use xlink:href="#mbf8c64dd4d" x="602.140496" y="47.52" style="stroke: #000000; stroke-width: 0.5"/>
      </g>
     </g>
    </g>
    <g id="text_7">
     <!-- Epoch Number -->
     <g transform="translate(314.389786 394.248977)scale(0.18 -0.18)">
      <defs>
       <path id="CMR17-45" d="M 3885 1614 
L 3770 1614 
C 3629 676 3546 166 2419 166 
L 1530 166 
C 1274 166 1261 198 1261 415 
L 1261 2176 
L 1862 2176 
C 2464 2176 2522 1959 2522 1429 
L 2637 1429 
L 2637 3086 
L 2522 3086 
C 2522 2558 2464 2342 1862 2342 
L 1261 2342 
L 1261 3924 
C 1261 4141 1274 4172 1530 4172 
L 2406 4172 
C 3398 4172 3514 3778 3603 2933 
L 3718 2933 
L 3565 4339 
L 326 4339 
L 326 4172 
C 768 4172 838 4172 838 3886 
L 838 453 
C 838 166 768 166 326 166 
L 326 0 
L 3654 0 
L 3885 1614 
z
" transform="scale(0.015625)"/>
       <path id="CMR17-70" d="M 1408 -1114 
C 998 -1114 973 -1088 973 -834 
L 973 380 
C 1158 109 1427 -64 1766 -64 
C 2406 -64 3053 503 3053 1382 
C 3053 2196 2496 2816 1837 2816 
C 1453 2816 1139 2603 960 2345 
L 960 2816 
L 198 2745 
L 198 2577 
C 576 2577 634 2539 634 2228 
L 634 -834 
C 634 -1081 608 -1114 198 -1114 
L 198 -1280 
C 352 -1268 634 -1268 800 -1268 
C 966 -1268 1254 -1268 1408 -1280 
L 1408 -1114 
z
M 973 2015 
C 973 2106 973 2241 1222 2481 
C 1254 2506 1472 2700 1792 2700 
C 2259 2700 2643 2112 2643 1376 
C 2643 639 2234 38 1728 38 
C 1498 38 1248 148 1056 451 
C 973 594 973 632 973 736 
L 973 2015 
z
" transform="scale(0.015625)"/>
       <path id="CMR17-6f" d="M 2758 1356 
C 2758 2176 2163 2816 1466 2816 
C 768 2816 173 2176 173 1356 
C 173 550 768 -64 1466 -64 
C 2163 -64 2758 550 2758 1356 
z
M 1466 51 
C 1165 51 909 230 762 480 
C 602 768 582 1126 582 1408 
C 582 1676 595 2009 762 2297 
C 890 2508 1139 2713 1466 2713 
C 1754 2713 1997 2553 2150 2329 
C 2349 2028 2349 1606 2349 1408 
C 2349 1158 2336 774 2163 467 
C 1984 172 1709 51 1466 51 
z
" transform="scale(0.015625)"/>
       <path id="CMR17-63" d="M 2234 2240 
C 2112 2240 1933 2240 1933 2015 
C 1933 1836 2080 1785 2163 1785 
C 2208 1785 2394 1804 2394 2028 
C 2394 2476 1958 2816 1466 2816 
C 787 2816 211 2201 211 1379 
C 211 521 813 -64 1466 -64 
C 2259 -64 2458 676 2458 747 
C 2458 773 2451 792 2406 792 
C 2362 792 2355 786 2330 702 
C 2163 180 1798 51 1523 51 
C 1114 51 621 431 621 1385 
C 621 2358 1094 2700 1472 2700 
C 1722 2700 2093 2582 2234 2240 
z
" transform="scale(0.015625)"/>
       <path id="CMR17-68" d="M 2656 1954 
C 2656 2282 2592 2816 1837 2816 
C 1312 2816 1056 2392 979 2179 
L 973 2179 
L 973 4416 
L 211 4345 
L 211 4179 
C 589 4179 646 4141 646 3843 
L 646 443 
C 646 198 621 166 211 166 
L 211 0 
C 365 12 646 12 813 12 
C 979 12 1267 12 1421 0 
L 1421 166 
C 1011 166 986 192 986 443 
L 986 1678 
C 986 2269 1344 2713 1792 2713 
C 2266 2713 2317 2289 2317 1980 
L 2317 443 
C 2317 198 2291 166 1882 166 
L 1882 0 
C 2035 12 2317 12 2483 12 
C 2650 12 2938 12 3091 0 
L 3091 166 
C 2682 166 2656 192 2656 443 
L 2656 1954 
z
" transform="scale(0.015625)"/>
       <path id="CMR17-4e" d="M 1312 4275 
C 1267 4345 1261 4352 1139 4352 
L 326 4352 
L 326 4185 
L 448 4185 
C 704 4185 819 4153 838 4147 
L 838 624 
C 838 465 838 166 326 166 
L 326 0 
C 474 12 742 12 902 12 
C 1062 12 1331 12 1478 0 
L 1478 166 
C 966 166 966 465 966 624 
L 966 4057 
C 1011 4019 1011 4007 1056 3943 
L 3430 76 
C 3475 0 3494 0 3526 0 
C 3590 0 3590 19 3590 140 
L 3590 3726 
C 3590 3885 3590 4185 4102 4185 
L 4102 4352 
C 3955 4339 3686 4339 3526 4339 
C 3366 4339 3098 4339 2950 4352 
L 2950 4185 
C 3462 4185 3462 3885 3462 3726 
L 3462 777 
L 1312 4275 
z
" transform="scale(0.015625)"/>
       <path id="CMR17-75" d="M 1882 2745 
L 1882 2579 
C 2259 2579 2317 2540 2317 2229 
L 2317 1053 
C 2317 510 2029 38 1555 38 
C 1030 38 986 355 986 691 
L 986 2816 
L 211 2745 
L 211 2579 
C 467 2579 640 2579 646 2320 
L 646 1079 
C 646 646 646 368 813 187 
C 896 103 1056 -64 1517 -64 
C 2061 -64 2272 400 2323 536 
L 2330 536 
L 2330 -64 
L 3091 -13 
L 3091 154 
C 2714 154 2656 193 2656 503 
L 2656 2816 
L 1882 2745 
z
" transform="scale(0.015625)"/>
       <path id="CMR17-6d" d="M 4326 1954 
C 4326 2276 4269 2816 3507 2816 
C 3072 2816 2771 2520 2656 2173 
L 2650 2173 
C 2573 2700 2195 2816 1837 2816 
C 1331 2816 1069 2424 973 2166 
L 966 2166 
L 966 2816 
L 211 2745 
L 211 2578 
C 589 2578 646 2540 646 2231 
L 646 443 
C 646 198 621 166 211 166 
L 211 0 
C 365 12 646 12 813 12 
C 979 12 1267 12 1421 0 
L 1421 166 
C 1011 166 986 192 986 443 
L 986 1678 
C 986 2269 1344 2713 1792 2713 
C 2266 2713 2317 2289 2317 1980 
L 2317 443 
C 2317 198 2291 166 1882 166 
L 1882 0 
C 2035 12 2317 12 2483 12 
C 2650 12 2938 12 3091 0 
L 3091 166 
C 2682 166 2656 192 2656 443 
L 2656 1678 
C 2656 2269 3014 2713 3462 2713 
C 3936 2713 3987 2289 3987 1980 
L 3987 443 
C 3987 198 3962 166 3552 166 
L 3552 0 
C 3706 12 3987 12 4154 12 
C 4320 12 4608 12 4762 0 
L 4762 166 
C 4352 166 4326 192 4326 443 
L 4326 1954 
z
" transform="scale(0.015625)"/>
       <path id="CMR17-62" d="M 960 4416 
L 198 4345 
L 198 4179 
C 576 4179 634 4141 634 3843 
L 634 -13 
L 749 -13 
L 934 445 
C 1120 141 1395 -64 1766 -64 
C 2406 -64 3053 503 3053 1382 
C 3053 2209 2477 2816 1830 2816 
C 1434 2816 1152 2603 960 2351 
L 960 4416 
z
M 973 2022 
C 973 2138 973 2157 1062 2293 
C 1312 2681 1670 2713 1792 2713 
C 1984 2713 2643 2610 2643 1388 
C 2643 109 1888 38 1734 38 
C 1536 38 1248 115 1043 490 
C 973 613 973 626 973 742 
L 973 2022 
z
" transform="scale(0.015625)"/>
       <path id="CMR17-65" d="M 2438 1503 
C 2464 1529 2464 1542 2464 1606 
C 2464 2251 2118 2816 1389 2816 
C 710 2816 173 2175 173 1394 
C 173 554 781 -64 1459 -64 
C 2176 -64 2458 619 2458 755 
C 2458 800 2419 800 2406 800 
C 2362 800 2355 787 2330 709 
C 2189 270 1837 51 1504 51 
C 1229 51 954 206 781 490 
C 582 819 582 1200 582 1503 
L 2438 1503 
z
M 589 1600 
C 634 2511 1126 2713 1382 2713 
C 1818 2713 2112 2308 2118 1600 
L 589 1600 
z
" transform="scale(0.015625)"/>
       <path id="CMR17-72" d="M 960 1517 
C 960 2134 1222 2713 1702 2713 
C 1747 2713 1792 2707 1837 2687 
C 1837 2687 1696 2642 1696 2475 
C 1696 2321 1818 2257 1914 2257 
C 1990 2257 2131 2302 2131 2482 
C 2131 2687 1926 2816 1709 2816 
C 1222 2816 1011 2340 947 2115 
L 941 2115 
L 941 2816 
L 198 2745 
L 198 2578 
C 576 2578 634 2540 634 2231 
L 634 443 
C 634 198 608 166 198 166 
L 198 0 
C 352 12 646 12 813 12 
C 998 12 1325 12 1498 0 
L 1498 166 
C 1037 166 960 166 960 455 
L 960 1517 
z
" transform="scale(0.015625)"/>
      </defs>
      <use xlink:href="#CMR17-45" transform="scale(0.996264)"/>
      <use xlink:href="#CMR17-70" transform="translate(62.586301 0)scale(0.996264)"/>
      <use xlink:href="#CMR17-6f" transform="translate(116.084109 0)scale(0.996264)"/>
      <use xlink:href="#CMR17-63" transform="translate(164.377025 0)scale(0.996264)"/>
      <use xlink:href="#CMR17-68" transform="translate(202.260231 0)scale(0.996264)"/>
      <use xlink:href="#CMR17-4e" transform="translate(283.231568 0)scale(0.996264)"/>
      <use xlink:href="#CMR17-75" transform="translate(352.303997 0)scale(0.996264)"/>
      <use xlink:href="#CMR17-6d" transform="translate(403.199367 0)scale(0.996264)"/>
      <use xlink:href="#CMR17-62" transform="translate(477.516503 0)scale(0.996264)"/>
      <use xlink:href="#CMR17-65" transform="translate(531.014312 0)scale(0.996264)"/>
      <use xlink:href="#CMR17-72" transform="translate(571.499972 0)scale(0.996264)"/>
     </g>
    </g>
   </g>
   <g id="matplotlib.axis_2">
    <g id="ytick_1">
     <g id="line2d_43">
      <defs>
       <path id="m48a7f85981" d="M 0 0 
L 5 0 
" style="stroke: #000000; stroke-width: 0.5"/>
      </defs>
      <g>
       <use xlink:href="#m48a7f85981" x="90" y="338.58" style="stroke: #000000; stroke-width: 0.5"/>
      </g>
     </g>
     <g id="line2d_44">
      <defs>
       <path id="m65f9cb11da" d="M 0 0 
L -5 0 
" style="stroke: #000000; stroke-width: 0.5"/>
      </defs>
      <g>
       <use xlink:href="#m65f9cb11da" x="648" y="338.58" style="stroke: #000000; stroke-width: 0.5"/>
      </g>
     </g>
     <g id="text_8">
      <!-- $\mathdefault{0}$ -->
      <g transform="translate(81.518665 342.039249)scale(0.1 -0.1)">
       <use xlink:href="#CMR17-30" transform="scale(0.996264)"/>
      </g>
     </g>
    </g>
    <g id="ytick_2">
     <g id="line2d_45">
      <g>
       <use xlink:href="#m48a7f85981" x="90" y="279.741072" style="stroke: #000000; stroke-width: 0.5"/>
      </g>
     </g>
     <g id="line2d_46">
      <g>
       <use xlink:href="#m65f9cb11da" x="648" y="279.741072" style="stroke: #000000; stroke-width: 0.5"/>
      </g>
     </g>
     <g id="text_9">
      <!-- $\mathdefault{10}$ -->
      <g transform="translate(76.537329 283.200322)scale(0.1 -0.1)">
       <use xlink:href="#CMR17-31" transform="scale(0.996264)"/>
       <use xlink:href="#CMR17-30" transform="translate(45.690477 0)scale(0.996264)"/>
      </g>
     </g>
    </g>
    <g id="ytick_3">
     <g id="line2d_47">
      <g>
       <use xlink:href="#m48a7f85981" x="90" y="220.902145" style="stroke: #000000; stroke-width: 0.5"/>
      </g>
     </g>
     <g id="line2d_48">
      <g>
       <use xlink:href="#m65f9cb11da" x="648" y="220.902145" style="stroke: #000000; stroke-width: 0.5"/>
      </g>
     </g>
     <g id="text_10">
      <!-- $\mathdefault{20}$ -->
      <g transform="translate(76.537329 224.361394)scale(0.1 -0.1)">
       <use xlink:href="#CMR17-32" transform="scale(0.996264)"/>
       <use xlink:href="#CMR17-30" transform="translate(45.690477 0)scale(0.996264)"/>
      </g>
     </g>
    </g>
    <g id="ytick_4">
     <g id="line2d_49">
      <g>
       <use xlink:href="#m48a7f85981" x="90" y="162.063217" style="stroke: #000000; stroke-width: 0.5"/>
      </g>
     </g>
     <g id="line2d_50">
      <g>
       <use xlink:href="#m65f9cb11da" x="648" y="162.063217" style="stroke: #000000; stroke-width: 0.5"/>
      </g>
     </g>
     <g id="text_11">
      <!-- $\mathdefault{30}$ -->
      <g transform="translate(76.537329 165.522466)scale(0.1 -0.1)">
       <defs>
        <path id="CMR17-33" d="M 1414 2176 
C 1984 2176 2234 1673 2234 1094 
C 2234 322 1824 25 1453 25 
C 1114 25 563 193 390 691 
C 422 678 454 678 486 678 
C 640 678 755 780 755 947 
C 755 1132 614 1216 486 1216 
C 378 1216 211 1164 211 927 
C 211 335 787 -128 1466 -128 
C 2176 -128 2720 432 2720 1087 
C 2720 1718 2208 2176 1600 2246 
C 2086 2347 2554 2776 2554 3353 
C 2554 3856 2048 4224 1472 4224 
C 890 4224 378 3862 378 3347 
C 378 3123 544 3084 627 3084 
C 762 3084 877 3167 877 3334 
C 877 3500 762 3584 627 3584 
C 602 3584 570 3584 544 3571 
C 730 3999 1235 4076 1459 4076 
C 1683 4076 2106 3966 2106 3347 
C 2106 3167 2080 2851 1862 2574 
C 1670 2329 1453 2316 1242 2297 
C 1210 2297 1062 2284 1037 2284 
C 992 2278 966 2272 966 2227 
C 966 2182 973 2176 1101 2176 
L 1414 2176 
z
" transform="scale(0.015625)"/>
       </defs>
       <use xlink:href="#CMR17-33" transform="scale(0.996264)"/>
       <use xlink:href="#CMR17-30" transform="translate(45.690477 0)scale(0.996264)"/>
      </g>
     </g>
    </g>
    <g id="ytick_5">
     <g id="line2d_51">
      <g>
       <use xlink:href="#m48a7f85981" x="90" y="103.22429" style="stroke: #000000; stroke-width: 0.5"/>
      </g>
     </g>
     <g id="line2d_52">
      <g>
       <use xlink:href="#m65f9cb11da" x="648" y="103.22429" style="stroke: #000000; stroke-width: 0.5"/>
      </g>
     </g>
     <g id="text_12">
      <!-- $\mathdefault{40}$ -->
      <g transform="translate(76.537329 106.683539)scale(0.1 -0.1)">
       <use xlink:href="#CMR17-34" transform="scale(0.996264)"/>
       <use xlink:href="#CMR17-30" transform="translate(45.690477 0)scale(0.996264)"/>
      </g>
     </g>
    </g>
    <g id="ytick_6">
     <g id="line2d_53">
      <defs>
       <path id="mda954615f7" d="M 0 0 
L 2.5 0 
" style="stroke: #000000; stroke-width: 0.5"/>
      </defs>
      <g>
       <use xlink:href="#mda954615f7" x="90" y="350.347786" style="stroke: #000000; stroke-width: 0.5"/>
      </g>
     </g>
     <g id="line2d_54">
      <defs>
       <path id="m484434f2c4" d="M 0 0 
L -2.5 0 
" style="stroke: #000000; stroke-width: 0.5"/>
      </defs>
      <g>
       <use xlink:href="#m484434f2c4" x="648" y="350.347786" style="stroke: #000000; stroke-width: 0.5"/>
      </g>
     </g>
    </g>
    <g id="ytick_7">
     <g id="line2d_55">
      <g>
       <use xlink:href="#mda954615f7" x="90" y="326.812214" style="stroke: #000000; stroke-width: 0.5"/>
      </g>
     </g>
     <g id="line2d_56">
      <g>
       <use xlink:href="#m484434f2c4" x="648" y="326.812214" style="stroke: #000000; stroke-width: 0.5"/>
      </g>
     </g>
    </g>
    <g id="ytick_8">
     <g id="line2d_57">
      <g>
       <use xlink:href="#mda954615f7" x="90" y="315.044429" style="stroke: #000000; stroke-width: 0.5"/>
      </g>
     </g>
     <g id="line2d_58">
      <g>
       <use xlink:href="#m484434f2c4" x="648" y="315.044429" style="stroke: #000000; stroke-width: 0.5"/>
      </g>
     </g>
    </g>
    <g id="ytick_9">
     <g id="line2d_59">
      <g>
       <use xlink:href="#mda954615f7" x="90" y="303.276643" style="stroke: #000000; stroke-width: 0.5"/>
      </g>
     </g>
     <g id="line2d_60">
      <g>
       <use xlink:href="#m484434f2c4" x="648" y="303.276643" style="stroke: #000000; stroke-width: 0.5"/>
      </g>
     </g>
    </g>
    <g id="ytick_10">
     <g id="line2d_61">
      <g>
       <use xlink:href="#mda954615f7" x="90" y="291.508858" style="stroke: #000000; stroke-width: 0.5"/>
      </g>
     </g>
     <g id="line2d_62">
      <g>
       <use xlink:href="#m484434f2c4" x="648" y="291.508858" style="stroke: #000000; stroke-width: 0.5"/>
      </g>
     </g>
    </g>
    <g id="ytick_11">
     <g id="line2d_63">
      <g>
       <use xlink:href="#mda954615f7" x="90" y="267.973287" style="stroke: #000000; stroke-width: 0.5"/>
      </g>
     </g>
     <g id="line2d_64">
      <g>
       <use xlink:href="#m484434f2c4" x="648" y="267.973287" style="stroke: #000000; stroke-width: 0.5"/>
      </g>
     </g>
    </g>
    <g id="ytick_12">
     <g id="line2d_65">
      <g>
       <use xlink:href="#mda954615f7" x="90" y="256.205501" style="stroke: #000000; stroke-width: 0.5"/>
      </g>
     </g>
     <g id="line2d_66">
      <g>
       <use xlink:href="#m484434f2c4" x="648" y="256.205501" style="stroke: #000000; stroke-width: 0.5"/>
      </g>
     </g>
    </g>
    <g id="ytick_13">
     <g id="line2d_67">
      <g>
       <use xlink:href="#mda954615f7" x="90" y="244.437716" style="stroke: #000000; stroke-width: 0.5"/>
      </g>
     </g>
     <g id="line2d_68">
      <g>
       <use xlink:href="#m484434f2c4" x="648" y="244.437716" style="stroke: #000000; stroke-width: 0.5"/>
      </g>
     </g>
    </g>
    <g id="ytick_14">
     <g id="line2d_69">
      <g>
       <use xlink:href="#mda954615f7" x="90" y="232.66993" style="stroke: #000000; stroke-width: 0.5"/>
      </g>
     </g>
     <g id="line2d_70">
      <g>
       <use xlink:href="#m484434f2c4" x="648" y="232.66993" style="stroke: #000000; stroke-width: 0.5"/>
      </g>
     </g>
    </g>
    <g id="ytick_15">
     <g id="line2d_71">
      <g>
       <use xlink:href="#mda954615f7" x="90" y="209.134359" style="stroke: #000000; stroke-width: 0.5"/>
      </g>
     </g>
     <g id="line2d_72">
      <g>
       <use xlink:href="#m484434f2c4" x="648" y="209.134359" style="stroke: #000000; stroke-width: 0.5"/>
      </g>
     </g>
    </g>
    <g id="ytick_16">
     <g id="line2d_73">
      <g>
       <use xlink:href="#mda954615f7" x="90" y="197.366574" style="stroke: #000000; stroke-width: 0.5"/>
      </g>
     </g>
     <g id="line2d_74">
      <g>
       <use xlink:href="#m484434f2c4" x="648" y="197.366574" style="stroke: #000000; stroke-width: 0.5"/>
      </g>
     </g>
    </g>
    <g id="ytick_17">
     <g id="line2d_75">
      <g>
       <use xlink:href="#mda954615f7" x="90" y="185.598788" style="stroke: #000000; stroke-width: 0.5"/>
      </g>
     </g>
     <g id="line2d_76">
      <g>
       <use xlink:href="#m484434f2c4" x="648" y="185.598788" style="stroke: #000000; stroke-width: 0.5"/>
      </g>
     </g>
    </g>
    <g id="ytick_18">
     <g id="line2d_77">
      <g>
       <use xlink:href="#mda954615f7" x="90" y="173.831003" style="stroke: #000000; stroke-width: 0.5"/>
      </g>
     </g>
     <g id="line2d_78">
      <g>
       <use xlink:href="#m484434f2c4" x="648" y="173.831003" style="stroke: #000000; stroke-width: 0.5"/>
      </g>
     </g>
    </g>
    <g id="ytick_19">
     <g id="line2d_79">
      <g>
       <use xlink:href="#mda954615f7" x="90" y="150.295432" style="stroke: #000000; stroke-width: 0.5"/>
      </g>
     </g>
     <g id="line2d_80">
      <g>
       <use xlink:href="#m484434f2c4" x="648" y="150.295432" style="stroke: #000000; stroke-width: 0.5"/>
      </g>
     </g>
    </g>
    <g id="ytick_20">
     <g id="line2d_81">
      <g>
       <use xlink:href="#mda954615f7" x="90" y="138.527646" style="stroke: #000000; stroke-width: 0.5"/>
      </g>
     </g>
     <g id="line2d_82">
      <g>
       <use xlink:href="#m484434f2c4" x="648" y="138.527646" style="stroke: #000000; stroke-width: 0.5"/>
      </g>
     </g>
    </g>
    <g id="ytick_21">
     <g id="line2d_83">
      <g>
       <use xlink:href="#mda954615f7" x="90" y="126.759861" style="stroke: #000000; stroke-width: 0.5"/>
      </g>
     </g>
     <g id="line2d_84">
      <g>
       <use xlink:href="#m484434f2c4" x="648" y="126.759861" style="stroke: #000000; stroke-width: 0.5"/>
      </g>
     </g>
    </g>
    <g id="ytick_22">
     <g id="line2d_85">
      <g>
       <use xlink:href="#mda954615f7" x="90" y="114.992075" style="stroke: #000000; stroke-width: 0.5"/>
      </g>
     </g>
     <g id="line2d_86">
      <g>
       <use xlink:href="#m484434f2c4" x="648" y="114.992075" style="stroke: #000000; stroke-width: 0.5"/>
      </g>
     </g>
    </g>
    <g id="ytick_23">
     <g id="line2d_87">
      <g>
       <use xlink:href="#mda954615f7" x="90" y="91.456504" style="stroke: #000000; stroke-width: 0.5"/>
      </g>
     </g>
     <g id="line2d_88">
      <g>
       <use xlink:href="#m484434f2c4" x="648" y="91.456504" style="stroke: #000000; stroke-width: 0.5"/>
      </g>
     </g>
    </g>
    <g id="ytick_24">
     <g id="line2d_89">
      <g>
       <use xlink:href="#mda954615f7" x="90" y="79.688719" style="stroke: #000000; stroke-width: 0.5"/>
      </g>
     </g>
     <g id="line2d_90">
      <g>
       <use xlink:href="#m484434f2c4" x="648" y="79.688719" style="stroke: #000000; stroke-width: 0.5"/>
      </g>
     </g>
    </g>
    <g id="ytick_25">
     <g id="line2d_91">
      <g>
       <use xlink:href="#mda954615f7" x="90" y="67.920933" style="stroke: #000000; stroke-width: 0.5"/>
      </g>
     </g>
     <g id="line2d_92">
      <g>
       <use xlink:href="#m484434f2c4" x="648" y="67.920933" style="stroke: #000000; stroke-width: 0.5"/>
      </g>
     </g>
    </g>
    <g id="ytick_26">
     <g id="line2d_93">
      <g>
       <use xlink:href="#mda954615f7" x="90" y="56.153148" style="stroke: #000000; stroke-width: 0.5"/>
      </g>
     </g>
     <g id="line2d_94">
      <g>
       <use xlink:href="#m484434f2c4" x="648" y="56.153148" style="stroke: #000000; stroke-width: 0.5"/>
      </g>
     </g>
    </g>
    <g id="text_13">
     <!-- Scalar Loss -->
     <g transform="translate(19.247559 196.491936)scale(0.18 -0.18)">
      <defs>
       <path id="CMR17-53" d="M 2803 4351 
C 2803 4467 2797 4473 2758 4473 
C 2720 4473 2707 4447 2682 4390 
L 2490 3965 
C 2246 4320 1875 4480 1472 4480 
C 819 4480 294 3958 294 3301 
C 294 3101 339 2817 557 2546 
C 794 2250 1018 2198 1530 2063 
C 1722 2011 2042 1927 2106 1901 
C 2470 1747 2662 1360 2662 999 
C 2662 534 2336 38 1779 38 
C 1094 38 454 425 410 1328 
C 403 1431 397 1437 352 1437 
C 301 1437 294 1431 294 1302 
L 294 0 
C 294 -116 301 -122 339 -122 
C 384 -122 397 -90 486 109 
C 493 128 493 141 614 386 
C 934 -39 1472 -128 1779 -128 
C 2477 -128 2970 457 2970 1141 
C 2970 1476 2848 1734 2778 1850 
C 2509 2263 2221 2340 1914 2417 
C 1869 2437 1856 2437 1498 2527 
C 1152 2617 1005 2662 845 2836 
C 666 3036 602 3243 602 3449 
C 602 3868 934 4326 1478 4326 
C 2157 4326 2579 3842 2675 3036 
C 2694 2920 2701 2914 2746 2914 
C 2803 2914 2803 2933 2803 3043 
L 2803 4351 
z
" transform="scale(0.015625)"/>
       <path id="CMR17-61" d="M 2304 1656 
C 2304 2048 2304 2275 2035 2534 
C 1798 2751 1523 2816 1306 2816 
C 800 2816 435 2408 435 1977 
C 435 1740 627 1728 666 1728 
C 749 1728 896 1779 896 1958 
C 896 2118 774 2188 666 2188 
C 640 2188 608 2182 589 2176 
C 723 2594 1069 2713 1293 2713 
C 1613 2713 1965 2421 1965 1875 
L 1965 1632 
C 1587 1619 1133 1568 774 1373 
C 371 1147 256 822 256 576 
C 256 77 832 -64 1171 -64 
C 1523 -64 1850 135 1990 505 
C 2003 219 2182 -39 2464 -39 
C 2598 -39 2938 51 2938 563 
L 2938 926 
L 2822 926 
L 2822 557 
C 2822 161 2650 109 2566 109 
C 2304 109 2304 446 2304 732 
L 2304 1656 
z
M 1965 887 
C 1965 323 1568 38 1216 38 
C 896 38 646 278 646 576 
C 646 771 730 1114 1101 1322 
C 1408 1497 1760 1523 1965 1536 
L 1965 887 
z
" transform="scale(0.015625)"/>
       <path id="CMR17-6c" d="M 979 4416 
L 218 4345 
L 218 4179 
C 595 4179 653 4141 653 3835 
L 653 439 
C 653 198 627 166 218 166 
L 218 0 
C 371 12 653 12 813 12 
C 979 12 1261 12 1414 0 
L 1414 166 
C 1005 166 979 191 979 439 
L 979 4416 
z
" transform="scale(0.015625)"/>
       <path id="CMR17-4c" d="M 3469 1612 
L 3354 1612 
C 3302 981 3219 166 2125 166 
L 1530 166 
C 1274 166 1261 198 1261 414 
L 1261 3892 
C 1261 4121 1274 4185 1760 4185 
L 1901 4185 
L 1901 4352 
C 1638 4339 1331 4339 1069 4339 
C 870 4339 512 4339 326 4352 
L 326 4185 
C 768 4185 838 4185 838 3898 
L 838 453 
C 838 166 768 166 326 166 
L 326 0 
L 3315 0 
L 3469 1612 
z
" transform="scale(0.015625)"/>
       <path id="CMR17-73" d="M 1978 2688 
C 1978 2803 1971 2809 1933 2809 
C 1907 2809 1901 2803 1824 2707 
C 1805 2681 1747 2617 1728 2592 
C 1523 2809 1235 2816 1126 2816 
C 416 2816 160 2444 160 2073 
C 160 1497 813 1363 998 1324 
C 1402 1241 1542 1216 1677 1100 
C 1760 1024 1901 883 1901 652 
C 1901 384 1747 38 1158 38 
C 602 38 403 460 288 1024 
C 269 1113 269 1120 218 1120 
C 166 1120 160 1113 160 985 
L 160 64 
C 160 -52 166 -58 205 -58 
C 237 -58 243 -52 275 0 
C 314 57 410 211 448 275 
C 576 102 800 -64 1158 -64 
C 1792 -64 2131 281 2131 780 
C 2131 1107 1958 1280 1875 1356 
C 1683 1555 1459 1600 1190 1651 
C 838 1728 390 1817 390 2208 
C 390 2374 480 2726 1126 2726 
C 1811 2726 1850 2086 1862 1881 
C 1869 1849 1901 1843 1920 1843 
C 1978 1843 1978 1862 1978 1971 
L 1978 2688 
z
" transform="scale(0.015625)"/>
      </defs>
      <use xlink:href="#CMR17-53" transform="scale(0.996264)"/>
      <use xlink:href="#CMR17-63" transform="translate(50.89537 0)scale(0.996264)"/>
      <use xlink:href="#CMR17-61" transform="translate(91.38103 0)scale(0.996264)"/>
      <use xlink:href="#CMR17-6c" transform="translate(137.071507 0)scale(0.996264)"/>
      <use xlink:href="#CMR17-61" transform="translate(161.942566 0)scale(0.996264)"/>
      <use xlink:href="#CMR17-72" transform="translate(207.633043 0)scale(0.996264)"/>
      <use xlink:href="#CMR17-4c" transform="translate(272.989777 0)scale(0.996264)"/>
      <use xlink:href="#CMR17-6f" transform="translate(330.371185 0)scale(0.996264)"/>
      <use xlink:href="#CMR17-73" transform="translate(376.061662 0)scale(0.996264)"/>
      <use xlink:href="#CMR17-73" transform="translate(411.863 0)scale(0.996264)"/>
     </g>
    </g>
   </g>
   <g id="line2d_95">
    <path d="M 115.363636 61.38 
L 120.487603 61.38 
L 125.61157 61.38 
L 130.735537 61.38 
L 135.859504 61.38 
L 140.983471 61.38 
L 146.107438 61.38 
L 151.231405 61.38 
L 156.355372 61.38 
L 161.479339 61.38 
L 166.603306 61.38 
L 171.727273 61.38 
L 176.85124 61.38 
L 181.975207 61.38 
L 187.099174 61.38 
L 192.22314 61.38 
L 197.347107 61.38 
L 202.471074 61.38 
L 207.595041 61.38 
L 212.719008 61.38 
L 217.842975 61.38 
L 222.966942 61.38 
L 228.090909 61.38 
L 233.214876 61.38 
L 238.338843 61.38 
L 243.46281 61.38 
L 248.586777 61.38 
L 253.710744 61.38 
L 258.834711 61.38 
L 263.958678 61.38 
L 269.082645 61.38 
L 274.206612 61.38 
L 279.330579 61.38 
L 284.454545 61.38 
L 289.578512 61.38 
L 294.702479 61.38 
L 299.826446 61.38 
L 304.950413 61.38 
L 310.07438 61.38 
L 315.198347 61.38 
L 320.322314 61.38 
L 325.446281 61.38 
L 330.570248 61.38 
L 335.694215 61.38 
L 340.818182 61.38 
L 345.942149 61.38 
L 351.066116 61.38 
L 356.190083 61.38 
L 361.31405 61.38 
L 366.438017 61.38 
L 371.561983 61.38 
L 376.68595 61.38 
L 381.809917 61.38 
L 386.933884 61.38 
L 392.057851 61.38 
L 397.181818 61.38 
L 402.305785 61.38 
L 407.429752 61.38 
L 412.553719 61.38 
L 417.677686 61.38 
L 422.801653 61.38 
L 427.92562 61.38 
L 433.049587 61.38 
L 438.173554 61.38 
L 443.297521 61.38 
L 448.421488 61.38 
L 453.545455 61.38 
L 458.669421 61.38 
L 463.793388 61.38 
L 468.917355 61.38 
L 474.041322 61.38 
L 479.165289 61.38 
L 484.289256 61.38 
L 489.413223 61.38 
L 494.53719 61.38 
L 499.661157 61.38 
L 504.785124 61.38 
L 509.909091 61.38 
L 515.033058 61.38 
L 520.157025 61.38 
L 525.280992 61.38 
L 530.404959 61.38 
L 535.528926 61.38 
L 540.652893 61.38 
L 545.77686 61.38 
L 550.900826 61.38 
L 556.024793 61.38 
L 561.14876 61.38 
L 566.272727 61.38 
L 571.396694 61.38 
L 576.520661 61.38 
L 581.644628 61.38 
L 586.768595 61.38 
L 591.892562 61.38 
L 597.016529 61.38 
L 602.140496 61.38 
L 607.264463 61.38 
L 612.38843 61.38 
L 617.512397 61.38 
L 622.636364 61.38 
" clip-path="url(#p8ce7228cba)" style="fill: none; stroke: #ff0000; stroke-width: 1.5; stroke-linecap: square"/>
   </g>
   <g id="line2d_96">
    <path d="M 115.363636 338.58 
L 120.487603 338.58 
L 125.61157 338.58 
L 130.735537 338.58 
L 135.859504 338.58 
L 140.983471 338.58 
L 146.107438 338.58 
L 151.231405 338.58 
L 156.355372 338.58 
L 161.479339 338.58 
L 166.603306 338.58 
L 171.727273 338.58 
L 176.85124 338.58 
L 181.975207 338.58 
L 187.099174 338.58 
L 192.22314 338.58 
L 197.347107 338.58 
L 202.471074 338.58 
L 207.595041 338.58 
L 212.719008 338.58 
L 217.842975 338.58 
L 222.966942 338.58 
L 228.090909 338.58 
L 233.214876 338.58 
L 238.338843 338.58 
L 243.46281 338.58 
L 248.586777 338.58 
L 253.710744 338.58 
L 258.834711 338.58 
L 263.958678 338.58 
L 269.082645 338.58 
L 274.206612 338.58 
L 279.330579 338.58 
L 284.454545 338.58 
L 289.578512 338.58 
L 294.702479 338.58 
L 299.826446 338.58 
L 304.950413 338.58 
L 310.07438 338.58 
L 315.198347 338.58 
L 320.322314 338.58 
L 325.446281 338.58 
L 330.570248 338.58 
L 335.694215 338.58 
L 340.818182 338.58 
L 345.942149 338.58 
L 351.066116 338.58 
L 356.190083 338.58 
L 361.31405 338.58 
L 366.438017 338.58 
L 371.561983 338.58 
L 376.68595 338.58 
L 381.809917 338.58 
L 386.933884 338.58 
L 392.057851 338.58 
L 397.181818 338.58 
L 402.305785 338.58 
L 407.429752 338.58 
L 412.553719 338.58 
L 417.677686 338.58 
L 422.801653 338.58 
L 427.92562 338.58 
L 433.049587 338.58 
L 438.173554 338.58 
L 443.297521 338.58 
L 448.421488 338.58 
L 453.545455 338.58 
L 458.669421 338.58 
L 463.793388 338.58 
L 468.917355 338.58 
L 474.041322 338.58 
L 479.165289 338.58 
L 484.289256 338.58 
L 489.413223 338.58 
L 494.53719 338.58 
L 499.661157 338.58 
L 504.785124 338.58 
L 509.909091 338.58 
L 515.033058 338.58 
L 520.157025 338.58 
L 525.280992 338.58 
L 530.404959 338.58 
L 535.528926 338.58 
L 540.652893 338.58 
L 545.77686 338.58 
L 550.900826 338.58 
L 556.024793 338.58 
L 561.14876 338.58 
L 566.272727 338.58 
L 571.396694 338.58 
L 576.520661 338.58 
L 581.644628 338.58 
L 586.768595 338.58 
L 591.892562 338.58 
L 597.016529 338.58 
L 602.140496 338.58 
L 607.264463 338.58 
L 612.38843 338.58 
L 617.512397 338.58 
L 622.636364 338.58 
" clip-path="url(#p8ce7228cba)" style="fill: none; stroke: #008000; stroke-width: 1.5; stroke-linecap: square"/>
   </g>
   <g id="line2d_97">
    <path d="M 115.363636 61.380112 
L 120.487603 61.380224 
L 125.61157 61.380247 
L 130.735537 61.380135 
L 135.859504 61.380135 
L 140.983471 61.380202 
L 146.107438 61.380112 
L 151.231405 61.380247 
L 156.355372 61.380157 
L 161.479339 61.38 
L 166.603306 61.380067 
L 171.727273 61.380224 
L 176.85124 61.380112 
L 181.975207 61.380135 
L 187.099174 61.380247 
L 192.22314 61.380314 
L 197.347107 61.380269 
L 202.471074 61.380112 
L 207.595041 61.380269 
L 212.719008 61.380247 
L 217.842975 61.38018 
L 222.966942 61.380022 
L 228.090909 61.380022 
L 233.214876 61.380157 
L 238.338843 61.380157 
L 243.46281 61.380135 
L 248.586777 61.380202 
L 253.710744 61.380135 
L 258.834711 61.38018 
L 263.958678 61.380157 
L 269.082645 61.380202 
L 274.206612 61.380202 
L 279.330579 61.380067 
L 284.454545 61.38 
L 289.578512 61.380157 
L 294.702479 61.380157 
L 299.826446 61.380157 
L 304.950413 61.38018 
L 310.07438 61.380224 
L 315.198347 61.380135 
L 320.322314 61.380314 
L 325.446281 61.38009 
L 330.570248 61.380157 
L 335.694215 61.380067 
L 340.818182 61.38018 
L 345.942149 61.38009 
L 351.066116 61.38018 
L 356.190083 61.380247 
L 361.31405 61.380157 
L 366.438017 61.38018 
L 371.561983 61.380112 
L 376.68595 61.380247 
L 381.809917 61.380112 
L 386.933884 61.380135 
L 392.057851 61.380157 
L 397.181818 61.38009 
L 402.305785 61.380135 
L 407.429752 61.380157 
L 412.553719 61.38018 
L 417.677686 61.380359 
L 422.801653 61.380135 
L 427.92562 61.38009 
L 433.049587 61.38018 
L 438.173554 61.38018 
L 443.297521 61.380135 
L 448.421488 61.38018 
L 453.545455 61.380224 
L 458.669421 61.380269 
L 463.793388 61.38009 
L 468.917355 61.380112 
L 474.041322 61.380202 
L 479.165289 61.380269 
L 484.289256 61.38009 
L 489.413223 61.380112 
L 494.53719 61.380112 
L 499.661157 61.380135 
L 504.785124 61.380224 
L 509.909091 61.380157 
L 515.033058 61.380135 
L 520.157025 61.380202 
L 525.280992 61.380112 
L 530.404959 61.380157 
L 535.528926 61.380112 
L 540.652893 61.380202 
L 545.77686 61.380112 
L 550.900826 61.380224 
L 556.024793 61.380112 
L 561.14876 61.380157 
L 566.272727 61.380224 
L 571.396694 61.380157 
L 576.520661 61.380247 
L 581.644628 61.380157 
L 586.768595 61.380135 
L 591.892562 61.380135 
L 597.016529 61.380112 
L 602.140496 61.380314 
L 607.264463 61.380247 
L 612.38843 61.38018 
L 617.512397 61.38009 
L 622.636364 61.38 
" clip-path="url(#p8ce7228cba)" style="fill: none; stroke: #0000ff; stroke-width: 1.5; stroke-linecap: square"/>
   </g>
   <g id="line2d_98">
    <path d="M 115.363636 129.193691 
L 120.487603 129.193691 
L 125.61157 129.193691 
L 130.735537 129.193691 
L 135.859504 129.193691 
L 140.983471 129.193691 
L 146.107438 129.193691 
L 151.231405 129.193691 
L 156.355372 129.193691 
L 161.479339 129.193691 
L 166.603306 129.193691 
L 171.727273 129.193691 
L 176.85124 129.193691 
L 181.975207 129.193691 
L 187.099174 129.193691 
L 192.22314 129.193691 
L 197.347107 129.193691 
L 202.471074 129.193691 
L 207.595041 129.193691 
L 212.719008 129.193691 
L 217.842975 129.193691 
L 222.966942 129.193691 
L 228.090909 129.193691 
L 233.214876 129.193691 
L 238.338843 129.193691 
L 243.46281 129.193691 
L 248.586777 129.193691 
L 253.710744 129.193691 
L 258.834711 129.193691 
L 263.958678 129.193691 
L 269.082645 129.193691 
L 274.206612 129.193691 
L 279.330579 129.193691 
L 284.454545 129.193691 
L 289.578512 129.193691 
L 294.702479 129.193691 
L 299.826446 129.193691 
L 304.950413 129.193691 
L 310.07438 129.193691 
L 315.198347 129.193691 
L 320.322314 129.193691 
L 325.446281 129.193691 
L 330.570248 129.193691 
L 335.694215 129.193691 
L 340.818182 129.193691 
L 345.942149 129.193691 
L 351.066116 129.193691 
L 356.190083 129.193691 
L 361.31405 129.193691 
L 366.438017 129.193691 
L 371.561983 129.193691 
L 376.68595 129.193691 
L 381.809917 129.193691 
L 386.933884 129.193691 
L 392.057851 129.193691 
L 397.181818 129.193691 
L 402.305785 129.193691 
L 407.429752 129.193691 
L 412.553719 129.193691 
L 417.677686 129.193691 
L 422.801653 129.193691 
L 427.92562 129.193691 
L 433.049587 129.193691 
L 438.173554 129.193691 
L 443.297521 129.193691 
L 448.421488 129.193691 
L 453.545455 129.193691 
L 458.669421 129.193691 
L 463.793388 129.193691 
L 468.917355 129.193691 
L 474.041322 129.193691 
L 479.165289 129.193691 
L 484.289256 129.193691 
L 489.413223 129.193691 
L 494.53719 129.193691 
L 499.661157 129.193691 
L 504.785124 129.193691 
L 509.909091 129.193691 
L 515.033058 129.193691 
L 520.157025 129.193691 
L 525.280992 129.193691 
L 530.404959 129.193691 
L 535.528926 129.193691 
L 540.652893 129.193691 
L 545.77686 129.193691 
L 550.900826 129.193691 
L 556.024793 129.193691 
L 561.14876 129.193691 
L 566.272727 129.193691 
L 571.396694 129.193691 
L 576.520661 129.193691 
L 581.644628 129.193691 
L 586.768595 129.193691 
L 591.892562 129.193691 
L 597.016529 129.193691 
L 602.140496 129.193691 
L 607.264463 129.193691 
L 612.38843 129.193691 
L 617.512397 129.193691 
L 622.636364 129.193691 
" clip-path="url(#p8ce7228cba)" style="fill: none; stroke: #800080; stroke-width: 1.5; stroke-linecap: square"/>
   </g>
   <g id="patch_3">
    <path d="M 90 352.44 
L 90 47.52 
" style="fill: none; stroke: #000000; stroke-width: 0.8; stroke-linejoin: miter; stroke-linecap: square"/>
   </g>
   <g id="patch_4">
    <path d="M 648 352.44 
L 648 47.52 
" style="fill: none; stroke: #000000; stroke-width: 0.8; stroke-linejoin: miter; stroke-linecap: square"/>
   </g>
   <g id="patch_5">
    <path d="M 90 352.44 
L 648 352.44 
" style="fill: none; stroke: #000000; stroke-width: 0.8; stroke-linejoin: miter; stroke-linecap: square"/>
   </g>
   <g id="patch_6">
    <path d="M 90 47.52 
L 648 47.52 
" style="fill: none; stroke: #000000; stroke-width: 0.8; stroke-linejoin: miter; stroke-linecap: square"/>
   </g>
   <g id="legend_1">
    <g id="patch_7">
     <path d="M 467.44085 249.918574 
L 636.1 249.918574 
Q 639.5 249.918574 639.5 246.518574 
L 639.5 153.441426 
Q 639.5 150.041426 636.1 150.041426 
L 467.44085 150.041426 
Q 464.04085 150.041426 464.04085 153.441426 
L 464.04085 246.518574 
Q 464.04085 249.918574 467.44085 249.918574 
z
" style="fill: #ffffff; opacity: 0.8; stroke: #cccccc; stroke-linejoin: miter"/>
    </g>
    <g id="line2d_99">
     <path d="M 470.84085 162.791426 
L 487.84085 162.791426 
L 504.84085 162.791426 
" style="fill: none; stroke: #ff0000; stroke-width: 1.5; stroke-linecap: square"/>
    </g>
    <g id="text_14">
     <!-- Initial MSE Loss -->
     <g transform="translate(518.44085 168.741426)scale(0.17 -0.17)">
      <defs>
       <path id="CMR17-49" d="M 1261 3898 
C 1261 4185 1338 4185 1798 4185 
L 1798 4352 
C 1594 4339 1267 4339 1050 4339 
C 832 4339 506 4339 301 4352 
L 301 4185 
C 762 4185 838 4185 838 3898 
L 838 453 
C 838 166 762 166 301 166 
L 301 0 
C 506 12 832 12 1050 12 
C 1267 12 1594 12 1798 0 
L 1798 166 
C 1338 166 1261 166 1261 453 
L 1261 3898 
z
" transform="scale(0.015625)"/>
       <path id="CMR17-6e" d="M 2656 1954 
C 2656 2282 2592 2816 1837 2816 
C 1331 2816 1069 2424 973 2166 
L 966 2166 
L 966 2816 
L 211 2745 
L 211 2578 
C 589 2578 646 2540 646 2231 
L 646 443 
C 646 198 621 166 211 166 
L 211 0 
C 365 12 646 12 813 12 
C 979 12 1267 12 1421 0 
L 1421 166 
C 1011 166 986 192 986 443 
L 986 1678 
C 986 2269 1344 2713 1792 2713 
C 2266 2713 2317 2289 2317 1980 
L 2317 443 
C 2317 198 2291 166 1882 166 
L 1882 0 
C 2035 12 2317 12 2483 12 
C 2650 12 2938 12 3091 0 
L 3091 166 
C 2682 166 2656 192 2656 443 
L 2656 1954 
z
" transform="scale(0.015625)"/>
       <path id="CMR17-69" d="M 992 3961 
C 992 4102 877 4224 730 4224 
C 589 4224 467 4108 467 3961 
C 467 3820 582 3699 730 3699 
C 870 3699 992 3814 992 3961 
z
M 243 2745 
L 243 2579 
C 602 2579 653 2540 653 2231 
L 653 443 
C 653 198 627 166 218 166 
L 218 0 
C 371 12 646 12 806 12 
C 960 12 1222 12 1370 0 
L 1370 166 
C 992 166 979 205 979 436 
L 979 2816 
L 243 2745 
z
" transform="scale(0.015625)"/>
       <path id="CMR17-74" d="M 966 2585 
L 1862 2585 
L 1862 2752 
L 966 2752 
L 966 3968 
L 851 3968 
C 838 3292 614 2700 70 2687 
L 70 2585 
L 627 2585 
L 627 778 
C 627 655 627 -64 1370 -64 
C 1747 -64 1965 308 1965 784 
L 1965 1151 
L 1850 1151 
L 1850 790 
C 1850 347 1677 51 1408 51 
C 1222 51 966 179 966 765 
L 966 2585 
z
" transform="scale(0.015625)"/>
       <path id="CMR17-4d" d="M 1338 4249 
C 1299 4345 1293 4352 1158 4352 
L 339 4352 
L 339 4185 
C 781 4185 851 4185 851 3898 
L 851 624 
C 851 465 851 166 339 166 
L 339 0 
C 486 12 755 12 915 12 
C 1075 12 1344 12 1491 0 
L 1491 166 
C 979 166 979 465 979 624 
L 979 4159 
L 986 4159 
L 2490 102 
C 2515 38 2528 0 2579 0 
C 2630 0 2643 38 2669 102 
L 4186 4191 
L 4192 4191 
L 4192 453 
C 4192 166 4122 166 3680 166 
L 3680 0 
C 3853 12 4198 12 4384 12 
C 4570 12 4922 12 5094 0 
L 5094 166 
C 4653 166 4582 166 4582 453 
L 4582 3898 
C 4582 4185 4653 4185 5094 4185 
L 5094 4352 
L 4282 4352 
C 4147 4352 4141 4345 4102 4249 
L 2720 516 
L 1338 4249 
z
" transform="scale(0.015625)"/>
      </defs>
      <use xlink:href="#CMR17-49" transform="scale(0.996264)"/>
      <use xlink:href="#CMR17-6e" transform="translate(32.638409 0)scale(0.996264)"/>
      <use xlink:href="#CMR17-69" transform="translate(83.533779 0)scale(0.996264)"/>
      <use xlink:href="#CMR17-74" transform="translate(108.404837 0)scale(0.996264)"/>
      <use xlink:href="#CMR17-69" transform="translate(143.685605 0)scale(0.996264)"/>
      <use xlink:href="#CMR17-61" transform="translate(168.556664 0)scale(0.996264)"/>
      <use xlink:href="#CMR17-6c" transform="translate(214.247141 0)scale(0.996264)"/>
      <use xlink:href="#CMR17-4d" transform="translate(269.194166 0)scale(0.996264)"/>
      <use xlink:href="#CMR17-53" transform="translate(353.881106 0)scale(0.996264)"/>
      <use xlink:href="#CMR17-45" transform="translate(404.776476 0)scale(0.996264)"/>
      <use xlink:href="#CMR17-4c" transform="translate(497.438743 0)scale(0.996264)"/>
      <use xlink:href="#CMR17-6f" transform="translate(554.820151 0)scale(0.996264)"/>
      <use xlink:href="#CMR17-73" transform="translate(600.510628 0)scale(0.996264)"/>
      <use xlink:href="#CMR17-73" transform="translate(636.311966 0)scale(0.996264)"/>
     </g>
    </g>
    <g id="line2d_100">
     <path d="M 470.84085 186.485713 
L 487.84085 186.485713 
L 504.84085 186.485713 
" style="fill: none; stroke: #008000; stroke-width: 1.5; stroke-linecap: square"/>
    </g>
    <g id="text_15">
     <!-- MSE $=0$ -->
     <g transform="translate(518.44085 192.435713)scale(0.17 -0.17)">
      <defs>
       <path id="CMR17-3d" d="M 4115 2048 
C 4211 2048 4307 2048 4307 2156 
C 4307 2272 4198 2272 4090 2272 
L 512 2272 
C 403 2272 294 2272 294 2156 
C 294 2048 390 2048 486 2048 
L 4115 2048 
z
M 4090 927 
C 4198 927 4307 927 4307 1043 
C 4307 1152 4211 1152 4115 1152 
L 486 1152 
C 390 1152 294 1152 294 1043 
C 294 927 403 927 512 927 
L 4090 927 
z
" transform="scale(0.015625)"/>
      </defs>
      <use xlink:href="#CMR17-4d" transform="scale(0.996264)"/>
      <use xlink:href="#CMR17-53" transform="translate(84.686941 0)scale(0.996264)"/>
      <use xlink:href="#CMR17-45" transform="translate(135.58231 0)scale(0.996264)"/>
      <use xlink:href="#CMR17-3d" transform="translate(228.244577 0)scale(0.996264)"/>
      <use xlink:href="#CMR17-30" transform="translate(327.633374 0)scale(0.996264)"/>
     </g>
    </g>
    <g id="line2d_101">
     <path d="M 470.84085 210.18 
L 487.84085 210.18 
L 504.84085 210.18 
" style="fill: none; stroke: #0000ff; stroke-width: 1.5; stroke-linecap: square"/>
    </g>
    <g id="text_16">
     <!-- MSE Loss -->
     <g transform="translate(518.44085 216.13)scale(0.17 -0.17)">
      <use xlink:href="#CMR17-4d" transform="scale(0.996264)"/>
      <use xlink:href="#CMR17-53" transform="translate(84.686941 0)scale(0.996264)"/>
      <use xlink:href="#CMR17-45" transform="translate(135.58231 0)scale(0.996264)"/>
      <use xlink:href="#CMR17-4c" transform="translate(228.244577 0)scale(0.996264)"/>
      <use xlink:href="#CMR17-6f" transform="translate(285.625985 0)scale(0.996264)"/>
      <use xlink:href="#CMR17-73" transform="translate(331.316462 0)scale(0.996264)"/>
      <use xlink:href="#CMR17-73" transform="translate(367.1178 0)scale(0.996264)"/>
     </g>
    </g>
    <g id="line2d_102">
     <path d="M 470.84085 233.874287 
L 487.84085 233.874287 
L 504.84085 233.874287 
" style="fill: none; stroke: #800080; stroke-width: 1.5; stroke-linecap: square"/>
    </g>
    <g id="text_17">
     <!-- Validation Loss -->
     <g transform="translate(518.44085 239.824287)scale(0.17 -0.17)">
      <defs>
       <path id="CMR17-56" d="M 3776 3762 
C 3834 3903 3936 4179 4365 4185 
L 4365 4352 
C 4218 4339 4051 4339 3891 4339 
C 3738 4339 3475 4339 3328 4352 
L 3328 4185 
C 3648 4166 3661 3942 3661 3903 
C 3661 3833 3642 3788 3622 3737 
L 2362 448 
L 1043 3903 
C 1024 3948 1011 3980 1011 4012 
C 1011 4185 1267 4185 1402 4185 
L 1402 4352 
C 1197 4339 896 4339 685 4339 
C 518 4339 218 4339 64 4352 
L 64 4185 
C 435 4185 506 4160 582 3955 
L 2106 -26 
C 2138 -116 2144 -128 2214 -128 
C 2285 -128 2291 -116 2323 -26 
L 3776 3762 
z
" transform="scale(0.015625)"/>
       <path id="CMR17-64" d="M 1869 4345 
L 1869 4179 
C 2246 4179 2304 4141 2304 3843 
L 2304 2371 
C 2278 2403 2016 2816 1498 2816 
C 845 2816 211 2228 211 1376 
C 211 529 806 -64 1434 -64 
C 1978 -64 2259 361 2291 406 
L 2291 -64 
L 3066 -13 
L 3066 154 
C 2688 154 2630 193 2630 503 
L 2630 4416 
L 1869 4345 
z
M 2291 762 
C 2291 568 2176 393 2029 264 
C 1811 70 1594 38 1472 38 
C 1286 38 621 135 621 1369 
C 621 2636 1363 2713 1530 2713 
C 1824 2713 2061 2545 2208 2313 
C 2291 2177 2291 2157 2291 2041 
L 2291 762 
z
" transform="scale(0.015625)"/>
      </defs>
      <use xlink:href="#CMR17-56" transform="scale(0.996264)"/>
      <use xlink:href="#CMR17-61" transform="translate(61.265174 0)scale(0.996264)"/>
      <use xlink:href="#CMR17-6c" transform="translate(106.955652 0)scale(0.996264)"/>
      <use xlink:href="#CMR17-69" transform="translate(131.82671 0)scale(0.996264)"/>
      <use xlink:href="#CMR17-64" transform="translate(156.697768 0)scale(0.996264)"/>
      <use xlink:href="#CMR17-61" transform="translate(207.593138 0)scale(0.996264)"/>
      <use xlink:href="#CMR17-74" transform="translate(253.283615 0)scale(0.996264)"/>
      <use xlink:href="#CMR17-69" transform="translate(288.564383 0)scale(0.996264)"/>
      <use xlink:href="#CMR17-6f" transform="translate(313.435442 0)scale(0.996264)"/>
      <use xlink:href="#CMR17-6e" transform="translate(359.125919 0)scale(0.996264)"/>
      <use xlink:href="#CMR17-4c" transform="translate(440.097255 0)scale(0.996264)"/>
      <use xlink:href="#CMR17-6f" transform="translate(497.478663 0)scale(0.996264)"/>
      <use xlink:href="#CMR17-73" transform="translate(543.16914 0)scale(0.996264)"/>
      <use xlink:href="#CMR17-73" transform="translate(578.970478 0)scale(0.996264)"/>
     </g>
    </g>
   </g>
  </g>
 </g>
 <defs>
  <clipPath id="p8ce7228cba">
   <rect x="90" y="47.52" width="558" height="304.92"/>
  </clipPath>
 </defs>
</svg>
